{"title":"Deadman Apocalypse 2015 Movies HDRip XviD ESubs New Sample ~ ☻rD","uid":15016992,"size":738680125,"categoryP":"video","categoryS":"movies","magnet":"?xt=urn:btih:e2058ed858e3c151cc1f3f8c3b0f7c6479bef8f7&amp;dn=Deadman+Apocalypse+2015+Movies+HDRip+XviD+ESubs+New+Sample+%7E+%E2%98%BBrD&amp;tr=udp%3A%2F%2Ftracker.leechers-paradise.org%3A6969&amp;tr=udp%3A%2F%2Fzer0day.ch%3A1337&amp;tr=udp%3A%2F%2Fopen.demonii.com%3A1337&amp;tr=udp%3A%2F%2Ftracker.coppersurfer.tk%3A6969&amp;tr=udp%3A%2F%2Fexodus.desync.com%3A6969","seeders":0,"leechers":1,"uploader":"basicssom","files":3,"time":1466455946,"description":"----------------------------------------------------------------\r\nDeadman Apocalypse 2015 English Movies HDRip XviD ESubs AAC New Source with Sample ☻rDX☻\r\n\r\nSCREEN SHOTS &amp; POSTER:\r\n  \nhttp://mobileshosting.com/2016/6/amazon/index.htm  \nhttp://mobileshosting.com/2016/6/amazon/1.html  \nhttp://mobileshosting.com/2016/6/amazon/2.html  \nhttp://mobileshosting.com/2016/6/amazon/3.html  \nhttp://mobileshosting.com/2016/6/amazon/4.html  \nhttp://mobileshosting.com/2016/6/amazon/5.html  \nhttp://mobileshosting.com/2016/6/amazon/6.html  \nhttp://mobileshosting.com/2016/6/amazon/7.html  \nhttp://mobileshosting.com/2016/6/amazon/8.html  \nhttp://mobileshosting.com/2016/6/amazon/9.html  \nhttp://mobileshosting.com/2016/6/amazon/10.html\r\n\r\nFormat                                   : Matroska\r\nFormat version                           : Version 4 / Version 2\r\nFile size                                : 694 MiB\r\nDuration                                 : 1h 18mn\r\nOverall bit rate                         : 1 241 Kbps\r\nMovie name                               : Deadman Apocalypse 2015 English Movies HDRip XviD ESubs AAC New Source ☻rDX☻\r\n\r\nVideo\r\nID                                       : 1\r\nFormat                                   : MPEG-4 Visual\r\nFormat profile                           : Advanced   \r\nFormat settings, BVOP                    : Yes\r\nFormat settings, QPel                    : No\r\nFormat settings, GMC                     : No warppoints\r\nFormat settings, Matrix                  : Default (H.263)\r\nCodec ID                                 : V_MS/VFW/FOURCC / XVID\r\nCodec ID/Hint                            : XviD\r\nDuration                                 : 1h 18mn\r\nBit rate                                 : 1 088 Kbps\r\nWidth                                    : 640 pixels\r\nHeight                                   : 272 pixels\r\nDisplay aspect ratio                     : 2.35:1\r\nFrame rate mode                          : Constant\r\nFrame rate                               : 25.000 fps\r\nColor space                              : YUV\r\nChroma subsampling                       : 4:2:0\r\nBit depth                                : 8 bits\r\nScan type                                : Progressive\r\nCompression mode                         : Lossy\r\nBits/(Pixel*Frame)                       : 0.250\r\nStream size                              : 609 MiB (88%)\r\nTitle                                    : ☻rDX☻\r\nWriting library                          : XviD 65\r\nDefault                                  : Yes\r\nForced                                   : No\r\n\r\nAudio\r\nID                                       : 2\r\nFormat                                   : MPEG Audio\r\nFormat version                           : Version 1\r\nFormat profile                           : Layer 3\r\nMode                                     : Joint stereo\r\nMode extension                           : MS Stereo\r\nCodec ID                                 : A_MPEG/L3\r\nCodec ID/Hint                            : MP3\r\nDuration                                 : 1h 18mn\r\nBit rate mode                            : Constant\r\nBit rate                                 : 128 Kbps\r\nChannel(s)                               : 2 channels\r\nSampling rate                            : 48.0 KHz\r\nCompression mode                         : Lossy\r\nStream size                              : 71.6 MiB (10%)\r\nTitle                                    : ☻rDX☻\r\nWriting library                          : LAME3.99r\r\nEncoding settings                        : -m j -V 4 -q 3 -lowpass 17 -b 128\r\nDefault                                  : Yes\r\nForced                                   : No\r\n\r\nIMDB \nhttp://www.imdb.com/title/tt4606498/","torrent":{"xt":"urn:btih:e2058ed858e3c151cc1f3f8c3b0f7c6479bef8f7","amp;dn":"Deadman+Apocalypse+2015+Movies+HDRip+XviD+ESubs+New+Sample+%7E+%E2%98%BBrD","amp;tr":["udp%3A%2F%2Ftracker.leechers-paradise.org%3A6969","udp%3A%2F%2Fzer0day.ch%3A1337","udp%3A%2F%2Fopen.demonii.com%3A1337","udp%3A%2F%2Ftracker.coppersurfer.tk%3A6969","udp%3A%2F%2Fexodus.desync.com%3A6969"],"infoHash":"e2058ed858e3c151cc1f3f8c3b0f7c6479bef8f7","infoHashBuffer":{"type":"Buffer","data":[226,5,142,216,88,227,193,81,204,31,63,140,59,15,124,100,121,190,248,247]},"announce":[],"urlList":[]}}